<?xml version="1.0" encoding="UTF-8" standalone="no"?>
<!DOCTYPE svg PUBLIC "-//W3C//DTD SVG 1.1//EN"
 "http://www.w3.org/Graphics/SVG/1.1/DTD/svg11.dtd">
<!-- Generated by graphviz version 2.40.1 (20161225.0304)
 -->
<!-- Title: oneDegreeRelationshipsDiagram Pages: 1 -->
<svg width="367pt" height="245pt"
 viewBox="0.00 0.00 367.00 244.70" xmlns="http://www.w3.org/2000/svg" xmlns:xlink="http://www.w3.org/1999/xlink">
<g id="graph0" class="graph" transform="scale(1 1) rotate(0) translate(4 240.7)">
<title>oneDegreeRelationshipsDiagram</title>
<polygon fill="#ffffff" stroke="transparent" points="-4,4 -4,-240.7 363,-240.7 363,4 -4,4"/>
<text text-anchor="middle" x="72.4936" y="-7.3" font-family="Helvetica,sans-Serif" font-size="11.00" fill="#000000">Generated by SchemaSpy</text>
<!-- article -->
<g id="node1" class="node">
<title>article</title>
<g id="a_node1"><a xlink:href="../../tables/article.html" xlink:title="article" target="_top">
<polygon fill="#ffffff" stroke="transparent" points="145,-54.7 145,-232.7 351,-232.7 351,-54.7 145,-54.7"/>
<polygon fill="#f5f5f5" stroke="transparent" points="147,-207.7 147,-230.7 349,-230.7 349,-207.7 147,-207.7"/>
<polygon fill="none" stroke="#000000" points="147,-207.7 147,-230.7 349,-230.7 349,-207.7 147,-207.7"/>
<text text-anchor="start" x="152" y="-216.8" font-family="Helvetica,sans-Serif" font-weight="bold" font-size="11.00" fill="#000000">article</text>
<text text-anchor="start" x="314.0437" y="-215.8" font-family="Helvetica,sans-Serif" font-size="11.00" fill="#000000">[table]</text>
<polygon fill="none" stroke="#000000" points="147,-185.7 147,-207.7 238,-207.7 238,-185.7 147,-185.7"/>
<image xlink:href="../../images/primaryKeys.png" width="11px" height="12px" preserveAspectRatio="xMinYMin meet" x="152" y="-202.7"/>
<text text-anchor="start" x="167" y="-192.8" font-family="Helvetica,sans-Serif" font-size="11.00" fill="#000000">id</text>
<polygon fill="none" stroke="#000000" points="238,-185.7 238,-207.7 349,-207.7 349,-185.7 238,-185.7"/>
<text text-anchor="start" x="241" y="-193.4" font-family="Helvetica,sans-Serif" font-size="11.00" fill="#000000">int[10]</text>
<polygon fill="none" stroke="#000000" points="147,-163.7 147,-185.7 238,-185.7 238,-163.7 147,-163.7"/>
<text text-anchor="start" x="167" y="-170.8" font-family="Helvetica,sans-Serif" font-size="11.00" fill="#000000">titre</text>
<polygon fill="none" stroke="#000000" points="238,-163.7 238,-185.7 349,-185.7 349,-163.7 238,-163.7"/>
<text text-anchor="start" x="241" y="-171.4" font-family="Helvetica,sans-Serif" font-size="11.00" fill="#000000">varchar[200]</text>
<polygon fill="none" stroke="#000000" points="147,-141.7 147,-163.7 238,-163.7 238,-141.7 147,-141.7"/>
<text text-anchor="start" x="167" y="-148.8" font-family="Helvetica,sans-Serif" font-size="11.00" fill="#000000">contenu</text>
<polygon fill="none" stroke="#000000" points="238,-141.7 238,-163.7 349,-163.7 349,-141.7 238,-141.7"/>
<text text-anchor="start" x="240.6115" y="-149.4" font-family="Helvetica,sans-Serif" font-size="11.00" fill="#000000">longtext[2147483647]</text>
<polygon fill="none" stroke="#000000" points="147,-119.7 147,-141.7 238,-141.7 238,-119.7 147,-119.7"/>
<text text-anchor="start" x="167" y="-126.8" font-family="Helvetica,sans-Serif" font-size="11.00" fill="#000000">created_at</text>
<polygon fill="none" stroke="#000000" points="238,-119.7 238,-141.7 349,-141.7 349,-119.7 238,-119.7"/>
<text text-anchor="start" x="241" y="-127.4" font-family="Helvetica,sans-Serif" font-size="11.00" fill="#000000">datetime[19]</text>
<polygon fill="none" stroke="#000000" points="147,-97.7 147,-119.7 238,-119.7 238,-97.7 147,-97.7"/>
<text text-anchor="start" x="167" y="-104.8" font-family="Helvetica,sans-Serif" font-size="11.00" fill="#000000">slug</text>
<polygon fill="none" stroke="#000000" points="238,-97.7 238,-119.7 349,-119.7 349,-97.7 238,-97.7"/>
<text text-anchor="start" x="241" y="-105.4" font-family="Helvetica,sans-Serif" font-size="11.00" fill="#000000">varchar[255]</text>
<polygon fill="#ffffff" stroke="transparent" points="147,-75.7 147,-97.7 238,-97.7 238,-75.7 147,-75.7"/>
<polygon fill="none" stroke="#000000" points="147,-75.7 147,-97.7 238,-97.7 238,-75.7 147,-75.7"/>
<image xlink:href="../../images/foreignKeys.png" width="11px" height="12px" preserveAspectRatio="xMinYMin meet" x="152" y="-92.7"/>
<text text-anchor="start" x="167" y="-82.8" font-family="Helvetica,sans-Serif" font-size="11.00" fill="#000000">categorie_id</text>
<polygon fill="none" stroke="#000000" points="238,-75.7 238,-97.7 349,-97.7 349,-75.7 238,-75.7"/>
<text text-anchor="start" x="241" y="-83.4" font-family="Helvetica,sans-Serif" font-size="11.00" fill="#000000">int[10]</text>
<polygon fill="#ffffff" stroke="transparent" points="147,-56.7 147,-75.7 178,-75.7 178,-56.7 147,-56.7"/>
<polygon fill="none" stroke="#000000" points="147,-56.7 147,-75.7 178,-75.7 178,-56.7 147,-56.7"/>
<text text-anchor="start" x="150" y="-62.8" font-family="Helvetica,sans-Serif" font-size="11.00" fill="#000000">&lt; 1</text>
<polygon fill="#ffffff" stroke="transparent" points="178,-56.7 178,-75.7 238,-75.7 238,-56.7 178,-56.7"/>
<polygon fill="none" stroke="#000000" points="178,-56.7 178,-75.7 238,-75.7 238,-56.7 178,-56.7"/>
<text text-anchor="start" x="190.3807" y="-62.8" font-family="Helvetica,sans-Serif" font-size="11.00" fill="#000000">100 rows</text>
<polygon fill="#ffffff" stroke="transparent" points="238,-56.7 238,-75.7 349,-75.7 349,-56.7 238,-56.7"/>
<polygon fill="none" stroke="#000000" points="238,-56.7 238,-75.7 349,-75.7 349,-56.7 238,-56.7"/>
<text text-anchor="start" x="330.4053" y="-62.8" font-family="Helvetica,sans-Serif" font-size="11.00" fill="#000000">0 &gt;</text>
<polygon fill="none" stroke="#000000" stroke-width="2" points="146,-55.7 146,-231.7 350,-231.7 350,-55.7 146,-55.7"/>
</a>
</g>
</g>
<!-- categorie -->
<g id="node2" class="node">
<title>categorie</title>
<g id="a_node2"><a xlink:href="../../tables/categorie.html" xlink:title="categorie" target="_top">
<polygon fill="#ffffff" stroke="transparent" points="8,-38.2 8,-121.2 96,-121.2 96,-38.2 8,-38.2"/>
<polygon fill="#f5f5f5" stroke="transparent" points="8,-97.7 8,-120.7 96,-120.7 96,-97.7 8,-97.7"/>
<polygon fill="none" stroke="#000000" points="8,-97.7 8,-120.7 96,-120.7 96,-97.7 8,-97.7"/>
<text text-anchor="start" x="12.8829" y="-106.8" font-family="Helvetica,sans-Serif" font-weight="bold" font-size="11.00" fill="#000000">categorie</text>
<text text-anchor="start" x="61.5219" y="-105.8" font-family="Helvetica,sans-Serif" font-size="11.00" fill="#000000">[table]</text>
<polygon fill="none" stroke="#000000" points="8,-75.7 8,-97.7 96,-97.7 96,-75.7 8,-75.7"/>
<image xlink:href="../../images/primaryKeys.png" width="11px" height="12px" preserveAspectRatio="xMinYMin meet" x="13" y="-92.7"/>
<text text-anchor="start" x="35" y="-82.8" font-family="Helvetica,sans-Serif" font-size="11.00" fill="#000000">id</text>
<polygon fill="none" stroke="#000000" points="8,-56.7 8,-75.7 96,-75.7 96,-56.7 8,-56.7"/>
<text text-anchor="start" x="11" y="-62.8" font-family="Helvetica,sans-Serif" font-size="11.00" fill="#000000">...</text>
<polygon fill="#ffffff" stroke="transparent" points="8,-37.7 8,-56.7 28,-56.7 28,-37.7 8,-37.7"/>
<polygon fill="none" stroke="#000000" points="8,-37.7 8,-56.7 28,-56.7 28,-37.7 8,-37.7"/>
<text text-anchor="start" x="11" y="-43.8" font-family="Helvetica,sans-Serif" font-size="11.00" fill="#000000"> &#160;</text>
<polygon fill="#ffffff" stroke="transparent" points="28,-37.7 28,-56.7 70,-56.7 70,-37.7 28,-37.7"/>
<polygon fill="none" stroke="#000000" points="28,-37.7 28,-56.7 70,-56.7 70,-37.7 28,-37.7"/>
<text text-anchor="start" x="34.6105" y="-43.8" font-family="Helvetica,sans-Serif" font-size="11.00" fill="#000000">9 rows</text>
<polygon fill="#ffffff" stroke="transparent" points="70,-37.7 70,-56.7 96,-56.7 96,-37.7 70,-37.7"/>
<polygon fill="none" stroke="#000000" points="70,-37.7 70,-56.7 96,-56.7 96,-37.7 70,-37.7"/>
<text text-anchor="start" x="77.4053" y="-43.8" font-family="Helvetica,sans-Serif" font-size="11.00" fill="#000000">1 &gt;</text>
</a>
</g>
</g>
<!-- article&#45;&gt;categorie -->
<g id="edge1" class="edge">
<title>article:w&#45;&gt;categorie:e</title>
<path fill="none" stroke="#000000" d="M132.276,-86.7C120.2815,-86.7 112.8229,-86.7 96,-86.7"/>
<polygon fill="#000000" stroke="#000000" points="139,-86.7001 147,-90.3 143,-86.7 147,-86.7 147,-86.7 147,-86.7 143,-86.7 147,-83.1 139,-86.7001 139,-86.7001"/>
<ellipse fill="none" stroke="#000000" cx="135.8" cy="-86.7001" rx="3.2" ry="3.2"/>
</g>
</g>
</svg>
