<?xml version="1.0" encoding="UTF-8" standalone="no"?>
<!DOCTYPE svg PUBLIC "-//W3C//DTD SVG 1.1//EN"
 "http://www.w3.org/Graphics/SVG/1.1/DTD/svg11.dtd">
<!-- Generated by graphviz version 2.40.1 (20161225.0304)
 -->
<!-- Title: compactRelationshipsDiagram Pages: 1 -->
<svg width="252pt" height="155pt"
 viewBox="0.00 0.00 252.00 155.20" xmlns="http://www.w3.org/2000/svg" xmlns:xlink="http://www.w3.org/1999/xlink">
<g id="graph0" class="graph" transform="scale(1 1) rotate(0) translate(4 151.2)">
<title>compactRelationshipsDiagram</title>
<polygon fill="#ffffff" stroke="transparent" points="-4,4 -4,-151.2 248,-151.2 248,4 -4,4"/>
<text text-anchor="middle" x="72.4936" y="-7.3" font-family="Helvetica,sans-Serif" font-size="11.00" fill="#000000">Generated by SchemaSpy</text>
<!-- article -->
<g id="node1" class="node">
<title>article</title>
<g id="a_node1"><a xlink:href="../../tables/article.html" xlink:title="article" target="_top">
<polygon fill="#ffffff" stroke="transparent" points="145,-38.2 145,-143.2 236,-143.2 236,-38.2 145,-38.2"/>
<polygon fill="#f5f5f5" stroke="transparent" points="145.5,-119.7 145.5,-142.7 236.5,-142.7 236.5,-119.7 145.5,-119.7"/>
<polygon fill="none" stroke="#000000" points="145.5,-119.7 145.5,-142.7 236.5,-142.7 236.5,-119.7 145.5,-119.7"/>
<text text-anchor="start" x="150.5" y="-128.8" font-family="Helvetica,sans-Serif" font-weight="bold" font-size="11.00" fill="#000000">article</text>
<text text-anchor="start" x="201.5437" y="-127.8" font-family="Helvetica,sans-Serif" font-size="11.00" fill="#000000">[table]</text>
<polygon fill="none" stroke="#000000" points="145.5,-97.7 145.5,-119.7 236.5,-119.7 236.5,-97.7 145.5,-97.7"/>
<image xlink:href="../../images/primaryKeys.png" width="11px" height="12px" preserveAspectRatio="xMinYMin meet" x="150.5" y="-114.7"/>
<text text-anchor="start" x="165.5" y="-104.8" font-family="Helvetica,sans-Serif" font-size="11.00" fill="#000000">id</text>
<polygon fill="#ffffff" stroke="transparent" points="145.5,-75.7 145.5,-97.7 236.5,-97.7 236.5,-75.7 145.5,-75.7"/>
<polygon fill="none" stroke="#000000" points="145.5,-75.7 145.5,-97.7 236.5,-97.7 236.5,-75.7 145.5,-75.7"/>
<image xlink:href="../../images/foreignKeys.png" width="11px" height="12px" preserveAspectRatio="xMinYMin meet" x="150.5" y="-92.7"/>
<text text-anchor="start" x="165.5" y="-82.8" font-family="Helvetica,sans-Serif" font-size="11.00" fill="#000000">categorie_id</text>
<polygon fill="none" stroke="#000000" points="145.5,-56.7 145.5,-75.7 236.5,-75.7 236.5,-56.7 145.5,-56.7"/>
<text text-anchor="start" x="148.5" y="-62.8" font-family="Helvetica,sans-Serif" font-size="11.00" fill="#000000">...</text>
<polygon fill="#ffffff" stroke="transparent" points="145.5,-37.7 145.5,-56.7 170.5,-56.7 170.5,-37.7 145.5,-37.7"/>
<polygon fill="none" stroke="#000000" points="145.5,-37.7 145.5,-56.7 170.5,-56.7 170.5,-37.7 145.5,-37.7"/>
<text text-anchor="start" x="148.5" y="-43.8" font-family="Helvetica,sans-Serif" font-size="11.00" fill="#000000">&lt; 1</text>
<polygon fill="#ffffff" stroke="transparent" points="170.5,-37.7 170.5,-56.7 222.5,-56.7 222.5,-37.7 170.5,-37.7"/>
<polygon fill="none" stroke="#000000" points="170.5,-37.7 170.5,-56.7 222.5,-56.7 222.5,-37.7 170.5,-37.7"/>
<text text-anchor="start" x="174.8807" y="-43.8" font-family="Helvetica,sans-Serif" font-size="11.00" fill="#000000">100 rows</text>
<polygon fill="#ffffff" stroke="transparent" points="222.5,-37.7 222.5,-56.7 236.5,-56.7 236.5,-37.7 222.5,-37.7"/>
<polygon fill="none" stroke="#000000" points="222.5,-37.7 222.5,-56.7 236.5,-56.7 236.5,-37.7 222.5,-37.7"/>
<text text-anchor="start" x="227.3862" y="-43.8" font-family="Helvetica,sans-Serif" font-size="11.00" fill="#000000"> &#160;</text>
</a>
</g>
</g>
<!-- categorie -->
<g id="node2" class="node">
<title>categorie</title>
<g id="a_node2"><a xlink:href="../../tables/categorie.html" xlink:title="categorie" target="_top">
<polygon fill="#ffffff" stroke="transparent" points="8,-38.2 8,-121.2 96,-121.2 96,-38.2 8,-38.2"/>
<polygon fill="#f5f5f5" stroke="transparent" points="8,-97.7 8,-120.7 96,-120.7 96,-97.7 8,-97.7"/>
<polygon fill="none" stroke="#000000" points="8,-97.7 8,-120.7 96,-120.7 96,-97.7 8,-97.7"/>
<text text-anchor="start" x="12.8829" y="-106.8" font-family="Helvetica,sans-Serif" font-weight="bold" font-size="11.00" fill="#000000">categorie</text>
<text text-anchor="start" x="61.5219" y="-105.8" font-family="Helvetica,sans-Serif" font-size="11.00" fill="#000000">[table]</text>
<polygon fill="none" stroke="#000000" points="8,-75.7 8,-97.7 96,-97.7 96,-75.7 8,-75.7"/>
<image xlink:href="../../images/primaryKeys.png" width="11px" height="12px" preserveAspectRatio="xMinYMin meet" x="13" y="-92.7"/>
<text text-anchor="start" x="35" y="-82.8" font-family="Helvetica,sans-Serif" font-size="11.00" fill="#000000">id</text>
<polygon fill="none" stroke="#000000" points="8,-56.7 8,-75.7 96,-75.7 96,-56.7 8,-56.7"/>
<text text-anchor="start" x="11" y="-62.8" font-family="Helvetica,sans-Serif" font-size="11.00" fill="#000000">...</text>
<polygon fill="#ffffff" stroke="transparent" points="8,-37.7 8,-56.7 28,-56.7 28,-37.7 8,-37.7"/>
<polygon fill="none" stroke="#000000" points="8,-37.7 8,-56.7 28,-56.7 28,-37.7 8,-37.7"/>
<text text-anchor="start" x="11" y="-43.8" font-family="Helvetica,sans-Serif" font-size="11.00" fill="#000000"> &#160;</text>
<polygon fill="#ffffff" stroke="transparent" points="28,-37.7 28,-56.7 70,-56.7 70,-37.7 28,-37.7"/>
<polygon fill="none" stroke="#000000" points="28,-37.7 28,-56.7 70,-56.7 70,-37.7 28,-37.7"/>
<text text-anchor="start" x="34.6105" y="-43.8" font-family="Helvetica,sans-Serif" font-size="11.00" fill="#000000">9 rows</text>
<polygon fill="#ffffff" stroke="transparent" points="70,-37.7 70,-56.7 96,-56.7 96,-37.7 70,-37.7"/>
<polygon fill="none" stroke="#000000" points="70,-37.7 70,-56.7 96,-56.7 96,-37.7 70,-37.7"/>
<text text-anchor="start" x="77.4053" y="-43.8" font-family="Helvetica,sans-Serif" font-size="11.00" fill="#000000">1 &gt;</text>
</a>
</g>
</g>
<!-- article&#45;&gt;categorie -->
<g id="edge1" class="edge">
<title>article:w&#45;&gt;categorie:e</title>
<path fill="none" stroke="#000000" d="M130.8428,-86.7C119.4139,-86.7 112.1563,-86.7 96,-86.7"/>
<polygon fill="#000000" stroke="#000000" points="137.5,-86.7001 145.5,-90.3 141.5,-86.7 145.5,-86.7 145.5,-86.7 145.5,-86.7 141.5,-86.7 145.5,-83.1 137.5,-86.7001 137.5,-86.7001"/>
<ellipse fill="none" stroke="#000000" cx="134.3" cy="-86.7001" rx="3.2" ry="3.2"/>
</g>
</g>
</svg>
