<?xml version="1.0" encoding="UTF-8" standalone="no"?>
<!DOCTYPE svg PUBLIC "-//W3C//DTD SVG 1.1//EN"
 "http://www.w3.org/Graphics/SVG/1.1/DTD/svg11.dtd">
<!-- Generated by graphviz version 2.40.1 (20161225.0304)
 -->
<!-- Title: largeRelationshipsDiagram Pages: 1 -->
<svg width="252pt" height="268pt"
 viewBox="0.00 0.00 252.00 268.20" xmlns="http://www.w3.org/2000/svg" xmlns:xlink="http://www.w3.org/1999/xlink">
<g id="graph0" class="graph" transform="scale(1 1) rotate(0) translate(4 264.2)">
<title>largeRelationshipsDiagram</title>
<polygon fill="#ffffff" stroke="transparent" points="-4,4 -4,-264.2 248,-264.2 248,4 -4,4"/>
<text text-anchor="middle" x="72.4936" y="-7.3" font-family="Helvetica,sans-Serif" font-size="11.00" fill="#000000">Generated by SchemaSpy</text>
<!-- article -->
<g id="node1" class="node">
<title>article</title>
<g id="a_node1"><a xlink:href="../../tables/article.html" xlink:title="article" target="_top">
<polygon fill="#ffffff" stroke="transparent" points="145,-60.2 145,-256.2 236,-256.2 236,-60.2 145,-60.2"/>
<polygon fill="#f5f5f5" stroke="transparent" points="145.5,-233.2 145.5,-256.2 236.5,-256.2 236.5,-233.2 145.5,-233.2"/>
<polygon fill="none" stroke="#000000" points="145.5,-233.2 145.5,-256.2 236.5,-256.2 236.5,-233.2 145.5,-233.2"/>
<text text-anchor="start" x="150.5" y="-242.3" font-family="Helvetica,sans-Serif" font-weight="bold" font-size="11.00" fill="#000000">article</text>
<text text-anchor="start" x="201.5437" y="-241.3" font-family="Helvetica,sans-Serif" font-size="11.00" fill="#000000">[table]</text>
<polygon fill="none" stroke="#000000" points="145.5,-211.2 145.5,-233.2 236.5,-233.2 236.5,-211.2 145.5,-211.2"/>
<image xlink:href="../../images/primaryKeys.png" width="11px" height="12px" preserveAspectRatio="xMinYMin meet" x="150.5" y="-228.2"/>
<text text-anchor="start" x="165.5" y="-218.3" font-family="Helvetica,sans-Serif" font-size="11.00" fill="#000000">id</text>
<polygon fill="none" stroke="#000000" points="145.5,-189.2 145.5,-211.2 236.5,-211.2 236.5,-189.2 145.5,-189.2"/>
<text text-anchor="start" x="165.5" y="-196.3" font-family="Helvetica,sans-Serif" font-size="11.00" fill="#000000">titre</text>
<polygon fill="none" stroke="#000000" points="145.5,-167.2 145.5,-189.2 236.5,-189.2 236.5,-167.2 145.5,-167.2"/>
<text text-anchor="start" x="165.5" y="-174.3" font-family="Helvetica,sans-Serif" font-size="11.00" fill="#000000">contenu</text>
<polygon fill="none" stroke="#000000" points="145.5,-145.2 145.5,-167.2 236.5,-167.2 236.5,-145.2 145.5,-145.2"/>
<text text-anchor="start" x="165.5" y="-152.3" font-family="Helvetica,sans-Serif" font-size="11.00" fill="#000000">created_at</text>
<polygon fill="none" stroke="#000000" points="145.5,-123.2 145.5,-145.2 236.5,-145.2 236.5,-123.2 145.5,-123.2"/>
<text text-anchor="start" x="165.5" y="-130.3" font-family="Helvetica,sans-Serif" font-size="11.00" fill="#000000">slug</text>
<polygon fill="#ffffff" stroke="transparent" points="145.5,-101.2 145.5,-123.2 236.5,-123.2 236.5,-101.2 145.5,-101.2"/>
<polygon fill="none" stroke="#000000" points="145.5,-101.2 145.5,-123.2 236.5,-123.2 236.5,-101.2 145.5,-101.2"/>
<image xlink:href="../../images/foreignKeys.png" width="11px" height="12px" preserveAspectRatio="xMinYMin meet" x="150.5" y="-118.2"/>
<text text-anchor="start" x="165.5" y="-108.3" font-family="Helvetica,sans-Serif" font-size="11.00" fill="#000000">categorie_id</text>
<polygon fill="none" stroke="#000000" points="145.5,-79.2 145.5,-101.2 236.5,-101.2 236.5,-79.2 145.5,-79.2"/>
<text text-anchor="start" x="165.5" y="-86.3" font-family="Helvetica,sans-Serif" font-size="11.00" fill="#000000">active</text>
<polygon fill="#ffffff" stroke="transparent" points="145.5,-60.2 145.5,-79.2 170.5,-79.2 170.5,-60.2 145.5,-60.2"/>
<polygon fill="none" stroke="#000000" points="145.5,-60.2 145.5,-79.2 170.5,-79.2 170.5,-60.2 145.5,-60.2"/>
<text text-anchor="start" x="148.5" y="-66.3" font-family="Helvetica,sans-Serif" font-size="11.00" fill="#000000">&lt; 1</text>
<polygon fill="#ffffff" stroke="transparent" points="170.5,-60.2 170.5,-79.2 222.5,-79.2 222.5,-60.2 170.5,-60.2"/>
<polygon fill="none" stroke="#000000" points="170.5,-60.2 170.5,-79.2 222.5,-79.2 222.5,-60.2 170.5,-60.2"/>
<text text-anchor="start" x="174.8807" y="-66.3" font-family="Helvetica,sans-Serif" font-size="11.00" fill="#000000">100 rows</text>
<polygon fill="#ffffff" stroke="transparent" points="222.5,-60.2 222.5,-79.2 236.5,-79.2 236.5,-60.2 222.5,-60.2"/>
<polygon fill="none" stroke="#000000" points="222.5,-60.2 222.5,-79.2 236.5,-79.2 236.5,-60.2 222.5,-60.2"/>
<text text-anchor="start" x="227.3862" y="-66.3" font-family="Helvetica,sans-Serif" font-size="11.00" fill="#000000"> &#160;</text>
</a>
</g>
</g>
<!-- categorie -->
<g id="node2" class="node">
<title>categorie</title>
<g id="a_node2"><a xlink:href="../../tables/categorie.html" xlink:title="categorie" target="_top">
<polygon fill="#ffffff" stroke="transparent" points="8,-38.2 8,-146.2 96,-146.2 96,-38.2 8,-38.2"/>
<polygon fill="#f5f5f5" stroke="transparent" points="8,-123.2 8,-146.2 96,-146.2 96,-123.2 8,-123.2"/>
<polygon fill="none" stroke="#000000" points="8,-123.2 8,-146.2 96,-146.2 96,-123.2 8,-123.2"/>
<text text-anchor="start" x="12.8829" y="-132.3" font-family="Helvetica,sans-Serif" font-weight="bold" font-size="11.00" fill="#000000">categorie</text>
<text text-anchor="start" x="61.5219" y="-131.3" font-family="Helvetica,sans-Serif" font-size="11.00" fill="#000000">[table]</text>
<polygon fill="none" stroke="#000000" points="8,-101.2 8,-123.2 96,-123.2 96,-101.2 8,-101.2"/>
<image xlink:href="../../images/primaryKeys.png" width="11px" height="12px" preserveAspectRatio="xMinYMin meet" x="13" y="-118.2"/>
<text text-anchor="start" x="35" y="-108.3" font-family="Helvetica,sans-Serif" font-size="11.00" fill="#000000">id</text>
<polygon fill="none" stroke="#000000" points="8,-79.2 8,-101.2 96,-101.2 96,-79.2 8,-79.2"/>
<text text-anchor="start" x="35" y="-86.3" font-family="Helvetica,sans-Serif" font-size="11.00" fill="#000000">titre</text>
<polygon fill="none" stroke="#000000" points="8,-57.2 8,-79.2 96,-79.2 96,-57.2 8,-57.2"/>
<text text-anchor="start" x="35" y="-64.3" font-family="Helvetica,sans-Serif" font-size="11.00" fill="#000000">slug</text>
<polygon fill="#ffffff" stroke="transparent" points="8,-38.2 8,-57.2 28,-57.2 28,-38.2 8,-38.2"/>
<polygon fill="none" stroke="#000000" points="8,-38.2 8,-57.2 28,-57.2 28,-38.2 8,-38.2"/>
<text text-anchor="start" x="11" y="-44.3" font-family="Helvetica,sans-Serif" font-size="11.00" fill="#000000"> &#160;</text>
<polygon fill="#ffffff" stroke="transparent" points="28,-38.2 28,-57.2 70,-57.2 70,-38.2 28,-38.2"/>
<polygon fill="none" stroke="#000000" points="28,-38.2 28,-57.2 70,-57.2 70,-38.2 28,-38.2"/>
<text text-anchor="start" x="34.6105" y="-44.3" font-family="Helvetica,sans-Serif" font-size="11.00" fill="#000000">9 rows</text>
<polygon fill="#ffffff" stroke="transparent" points="70,-38.2 70,-57.2 96,-57.2 96,-38.2 70,-38.2"/>
<polygon fill="none" stroke="#000000" points="70,-38.2 70,-57.2 96,-57.2 96,-38.2 70,-38.2"/>
<text text-anchor="start" x="77.4053" y="-44.3" font-family="Helvetica,sans-Serif" font-size="11.00" fill="#000000">1 &gt;</text>
</a>
</g>
</g>
<!-- article&#45;&gt;categorie -->
<g id="edge1" class="edge">
<title>article:w&#45;&gt;categorie:e</title>
<path fill="none" stroke="#000000" d="M130.8428,-112.2C119.4139,-112.2 112.1563,-112.2 96,-112.2"/>
<polygon fill="#000000" stroke="#000000" points="137.5,-112.2001 145.5,-115.8 141.5,-112.2 145.5,-112.2 145.5,-112.2 145.5,-112.2 141.5,-112.2 145.5,-108.6 137.5,-112.2001 137.5,-112.2001"/>
<ellipse fill="none" stroke="#000000" cx="134.3" cy="-112.2001" rx="3.2" ry="3.2"/>
</g>
</g>
</svg>
